<?xml version="1.0" encoding="utf-8"?>
<!-- Generator: Adobe Illustrator 24.3.0, SVG Export Plug-In . SVG Version: 6.00 Build 0)  -->
<svg version="1.0" id="katman_1" xmlns="http://www.w3.org/2000/svg" xmlns:xlink="http://www.w3.org/1999/xlink" x="0px" y="0px"
	 viewBox="0 0 323.7 214.96" style="enable-background:new 0 0 323.7 214.96;" xml:space="preserve">
<style type="text/css">
	.st0{clip-path:url(#SVGID_2_);}
	.st1{clip-path:url(#SVGID_4_);}
	.st2{fill:#FF9933;}
	.st3{fill:#FFFFFF;}
	.st4{fill:#128807;}
	.st5{fill:#000088;}
</style>
<g>
	<defs>
		<rect id="SVGID_1_" x="10.12" y="6.32" width="303.47" height="202.31"/>
	</defs>
	<clipPath id="SVGID_2_">
		<use xlink:href="#SVGID_1_"  style="overflow:visible;"/>
	</clipPath>
	<g class="st0">
		<g>
			<defs>
				<rect id="SVGID_3_" width="323.7" height="214.96"/>
			</defs>
			<clipPath id="SVGID_4_">
				<use xlink:href="#SVGID_3_"  style="overflow:visible;"/>
			</clipPath>
			<g class="st1">
				<path class="st2" d="M323.7,0H0v214.96h323.7V0z"/>
				<path class="st3" d="M323.7,71.65H0v71.65h323.7V71.65z"/>
				<path class="st4" d="M323.7,143.31H0v71.65h323.7V143.31z"/>
				<path class="st5" d="M161.85,136.14c15.89,0,28.77-12.83,28.77-28.66c0-15.83-12.88-28.66-28.77-28.66
					c-15.89,0-28.77,12.83-28.77,28.66C133.08,123.31,145.96,136.14,161.85,136.14z"/>
				<path class="st3" d="M161.85,132.56c13.91,0,25.18-11.23,25.18-25.08c0-13.85-11.27-25.08-25.18-25.08
					c-13.91,0-25.18,11.23-25.18,25.08C136.67,121.33,147.94,132.56,161.85,132.56z"/>
				<path class="st5" d="M161.85,112.5c2.78,0,5.04-2.25,5.04-5.02c0-2.77-2.25-5.02-5.04-5.02c-2.78,0-5.04,2.25-5.04,5.02
					C156.82,110.25,159.07,112.5,161.85,112.5z"/>
				<path class="st5" d="M186.65,112c0.69,0.09,1.32-0.39,1.41-1.08c0.09-0.69-0.39-1.32-1.08-1.41c-0.69-0.09-1.32,0.39-1.41,1.08
					C185.47,111.28,185.96,111.91,186.65,112z"/>
				<path class="st5" d="M161.85,132.56l0.86-15.05l-0.86-7.17l-0.86,7.17L161.85,132.56z"/>
				<path class="st5" d="M184.62,118.24c0.64,0.27,1.38-0.03,1.65-0.67c0.27-0.64-0.03-1.37-0.67-1.64
					c-0.64-0.27-1.38,0.03-1.65,0.67C183.68,117.24,183.98,117.97,184.62,118.24z"/>
				<path class="st5" d="M155.33,131.71l4.75-14.31l1.04-7.14l-2.69,6.7L155.33,131.71z"/>
				<path class="st5" d="M181.05,123.75c0.55,0.42,1.34,0.32,1.77-0.23c0.42-0.55,0.32-1.34-0.23-1.76
					c-0.55-0.42-1.34-0.32-1.77,0.23C180.4,122.54,180.5,123.32,181.05,123.75z"/>
				<path class="st5" d="M149.26,129.2l8.3-12.6l2.85-6.63l-4.34,5.78L149.26,129.2z"/>
				<path class="st5" d="M176.18,128.14c0.42,0.55,1.21,0.65,1.77,0.23s0.66-1.21,0.24-1.76c-0.42-0.55-1.21-0.66-1.77-0.23
					C175.86,126.8,175.75,127.59,176.18,128.14z"/>
				<path class="st5" d="M144.04,125.21l11.29-10.03l4.48-5.67l-5.7,4.46L144.04,125.21z"/>
				<path class="st5" d="M170.32,131.13c0.27,0.64,1,0.94,1.64,0.68c0.64-0.26,0.95-1,0.68-1.64c-0.27-0.64-1-0.94-1.65-0.68
					C170.36,129.76,170.06,130.49,170.32,131.13z"/>
				<path class="st5" d="M140.05,120.02l13.51-6.78l5.8-4.33l-6.66,2.84L140.05,120.02z"/>
				<path class="st5" d="M163.89,132.51c0.09,0.69,0.72,1.17,1.41,1.08c0.69-0.09,1.18-0.72,1.08-1.41
					c-0.09-0.69-0.72-1.17-1.41-1.08C164.28,131.19,163.8,131.82,163.89,132.51z"/>
				<path class="st5" d="M137.53,113.96l14.82-3.04l6.73-2.69l-7.17,1.01L137.53,113.96z"/>
				<path class="st5" d="M157.31,132.19c-0.09,0.69,0.41,1.32,1.1,1.41c0.69,0.09,1.33-0.4,1.41-1.1c0.09-0.69-0.41-1.32-1.1-1.41
					C158.03,131.01,157.4,131.5,157.31,132.19z"/>
				<path class="st5" d="M136.69,107.72l15.1,0.3l7.17-0.78l-7.2-0.47L136.69,107.72z"/>
				<path class="st5" d="M151.05,130.18c-0.26,0.64,0.05,1.38,0.69,1.64c0.64,0.26,1.38-0.05,1.64-0.69
					c0.26-0.64-0.05-1.38-0.69-1.64C152.05,129.22,151.31,129.53,151.05,130.18z"/>
				<path class="st5" d="M137.53,101.01l14.38,4.72l7.17,0.99l-6.73-2.69L137.53,101.01z"/>
				<path class="st5" d="M145.53,126.61c-0.42,0.55-0.32,1.34,0.23,1.76c0.55,0.42,1.34,0.32,1.77-0.23
					c0.42-0.55,0.32-1.34-0.23-1.76C146.74,125.96,145.95,126.07,145.53,126.61z"/>
				<path class="st5" d="M140.05,94.95l12.65,8.27l6.66,2.84l-5.8-4.33L140.05,94.95z"/>
				<path class="st5" d="M141.11,121.76c-0.55,0.42-0.66,1.21-0.24,1.76c0.42,0.55,1.21,0.66,1.77,0.24
					c0.55-0.42,0.66-1.21,0.24-1.76C142.46,121.44,141.67,121.34,141.11,121.76z"/>
				<path class="st5" d="M144.05,89.75L154.11,101l5.7,4.46l-4.47-5.67L144.05,89.75z"/>
				<path class="st5" d="M138.11,115.92c-0.64,0.26-0.95,1-0.69,1.64c0.26,0.64,1,0.95,1.65,0.69c0.64-0.26,0.95-1,0.69-1.64
					C139.49,115.97,138.76,115.66,138.11,115.92z"/>
				<path class="st5" d="M149.27,85.77l6.79,13.46l4.35,5.78l-2.84-6.63L149.27,85.77z"/>
				<path class="st5" d="M136.73,109.5c-0.69,0.09-1.18,0.72-1.1,1.41c0.09,0.69,0.72,1.18,1.41,1.09c0.69-0.09,1.18-0.72,1.1-1.41
					C138.05,109.91,137.42,109.42,136.73,109.5z"/>
				<path class="st5" d="M155.35,83.25l3.03,14.76l2.7,6.71l-1-7.14L155.35,83.25z"/>
				<path class="st5" d="M137.06,102.96c-0.68-0.09-1.32,0.38-1.41,1.07c-0.09,0.68,0.38,1.31,1.07,1.41
					c0.69,0.09,1.32-0.38,1.41-1.07C138.23,103.69,137.75,103.06,137.06,102.96z"/>
				<path class="st5" d="M161.67,82.41l-0.44,15.04l0.8,7.15l0.57-7.17L161.67,82.41z"/>
				<path class="st5" d="M139.08,96.72c-0.64-0.27-1.38,0.03-1.65,0.67c-0.27,0.64,0.03,1.37,0.67,1.64
					c0.64,0.27,1.37-0.03,1.64-0.67C140.02,97.72,139.72,96.99,139.08,96.72z"/>
				<path class="st5" d="M168.37,83.25l-4.75,14.31l-1.04,7.14l2.69-6.7L168.37,83.25z"/>
				<path class="st5" d="M142.64,91.21c-0.55-0.42-1.34-0.32-1.77,0.23c-0.43,0.55-0.33,1.34,0.22,1.76
					c0.55,0.42,1.34,0.32,1.77-0.23C143.29,92.42,143.19,91.64,142.64,91.21z"/>
				<path class="st5" d="M174.44,85.76l-8.3,12.6l-2.86,6.64l4.34-5.77L174.44,85.76z"/>
				<path class="st5" d="M147.52,86.82c-0.42-0.55-1.21-0.66-1.77-0.24c-0.56,0.42-0.66,1.21-0.24,1.76
					c0.42,0.55,1.21,0.66,1.77,0.24C147.84,88.15,147.94,87.37,147.52,86.82z"/>
				<path class="st5" d="M179.66,89.74l-11.29,10.02l-4.49,5.68l5.7-4.45L179.66,89.74z"/>
				<path class="st5" d="M153.38,83.83c-0.27-0.64-1-0.94-1.64-0.68c-0.64,0.26-0.95,1-0.68,1.64s1,0.94,1.65,0.68
					C153.34,85.2,153.64,84.47,153.38,83.83z"/>
				<path class="st5" d="M183.65,94.94l-13.51,6.78l-5.8,4.33l6.66-2.84L183.65,94.94z"/>
				<path class="st5" d="M159.81,82.45c-0.09-0.69-0.72-1.17-1.41-1.08c-0.69,0.09-1.18,0.72-1.08,1.41
					c0.09,0.69,0.72,1.17,1.41,1.08C159.42,83.77,159.9,83.14,159.81,82.45z"/>
				<path class="st5" d="M186.17,101l-14.82,3.04l-6.73,2.69l7.17-1.01L186.17,101z"/>
				<path class="st5" d="M166.4,82.78c0.09-0.69-0.41-1.32-1.1-1.41c-0.69-0.09-1.33,0.4-1.41,1.09c-0.09,0.69,0.41,1.32,1.1,1.41
					C165.68,83.96,166.31,83.47,166.4,82.78z"/>
				<path class="st5" d="M187.01,107.2l-15.1-0.2l-7.16,0.76l7.2,0.4L187.01,107.2z"/>
				<path class="st5" d="M172.65,84.78c0.26-0.64-0.05-1.38-0.69-1.64c-0.65-0.26-1.38,0.05-1.65,0.69
					c-0.26,0.64,0.05,1.38,0.69,1.64C171.65,85.73,172.39,85.42,172.65,84.78z"/>
				<path class="st5" d="M186.18,113.95l-14.38-4.72l-7.17-0.99l6.74,2.69L186.18,113.95z"/>
				<path class="st5" d="M178.18,88.34c0.42-0.55,0.31-1.34-0.24-1.76c-0.55-0.42-1.34-0.31-1.77,0.24
					c-0.42,0.55-0.31,1.34,0.24,1.76C176.97,89,177.76,88.9,178.18,88.34z"/>
				<path class="st5" d="M183.66,120.01L171,111.75l-6.66-2.83l5.8,4.33L183.66,120.01z"/>
				<path class="st5" d="M182.59,93.21c0.55-0.42,0.65-1.21,0.23-1.76c-0.42-0.55-1.21-0.65-1.76-0.23
					c-0.55,0.42-0.65,1.21-0.23,1.76C181.25,93.53,182.04,93.63,182.59,93.21z"/>
				<path class="st5" d="M179.66,125.21l-10.08-11.25l-5.7-4.45l4.48,5.68L179.66,125.21z"/>
				<path class="st5" d="M185.59,99.04c0.64-0.27,0.94-1,0.68-1.64c-0.27-0.64-1-0.94-1.64-0.68c-0.64,0.27-0.94,1-0.68,1.64
					C184.22,99,184.95,99.3,185.59,99.04z"/>
				<path class="st5" d="M174.44,129.19l-6.81-13.46l-4.34-5.77l2.86,6.64L174.44,129.19z"/>
				<path class="st5" d="M186.98,105.45c0.69-0.09,1.17-0.72,1.08-1.41c-0.09-0.69-0.72-1.17-1.41-1.08
					c-0.69,0.09-1.17,0.72-1.08,1.41C185.66,105.06,186.29,105.54,186.98,105.45z"/>
				<path class="st5" d="M168.37,131.7l-3.09-14.76l-2.69-6.7l1.04,7.14L168.37,131.7z"/>
			</g>
		</g>
	</g>
</g>
</svg>
